<?xml version="1.0" encoding="UTF-8"?>
<svg id="svg3245" width="16" height="16" version="1.1" viewBox="0 0 4.2333 4.2333" xmlns="http://www.w3.org/2000/svg" xmlns:cc="http://creativecommons.org/ns#" xmlns:dc="http://purl.org/dc/elements/1.1/" xmlns:rdf="http://www.w3.org/1999/02/22-rdf-syntax-ns#">
 <metadata id="metadata3251">
  <rdf:RDF>
   <cc:Work rdf:about="">
    <dc:format>image/svg+xml</dc:format>
    <dc:type rdf:resource="http://purl.org/dc/dcmitype/StillImage"/>
    <dc:title/>
   </cc:Work>
  </rdf:RDF>
 </metadata>
 <g id="g2048" transform="matrix(.87215 0 0 .87215 -.11539 -254.82)" fill="#0082c9">
  <path id="path2046" d="m2.5634 293.58c0.50293 0 0.92545 0.34315 1.0581 0.80467 0.11489-0.24468 0.36055-0.41782 0.64664-0.41782 0.39607 1e-3 0.7163 0.32263 0.71806 0.7187-0.00179 0.39606-0.32201 0.71692-0.71806 0.7187-0.28642 0-0.53174-0.17411-0.64728-0.41846-0.13204 0.46183-0.55457 0.80467-1.0575 0.80467-0.50584 0-0.93152-0.34621-1.0613-0.81225-0.11489 0.25745-0.36915 0.42387-0.65107 0.42604-0.39607-1e-3 -0.71693-0.32264-0.7187-0.7187 0.001419-0.39633 0.32239-0.71693 0.7187-0.7187 0.28998 0 0.53906 0.17683 0.65233 0.42604 0.12945-0.46604 0.55419-0.81227 1.06-0.81227zm0 0.42225c-0.37995 0-0.68265 0.30303-0.6833 0.68266-0.00216 0.3784 0.30491 0.6861 0.6833 0.68394 0.37788 1e-3 0.68448-0.30542 0.68268-0.6833 0-0.38028-0.30305-0.6833-0.68268-0.6833zm-1.7124 0.38621c-0.16464-1e-3 -0.29855 0.13236-0.29709 0.29709 0 0.16634 0.13105 0.29645 0.29773 0.29645 0.16435 1e-3 0.29765-0.1321 0.29583-0.29645 0.00201-0.16444-0.13147-0.29839-0.29583-0.29709zm3.4165 0c-0.16464-1e-3 -0.29855 0.13236-0.29709 0.29709 0 0.16634 0.13105 0.29645 0.29773 0.29645 0.16453 1e-3 0.2981-0.13193 0.29645-0.29645 0.00181-0.16462-0.13192-0.29856-0.29645-0.29709z" fill="#0082c9" stroke-width=".30661"/>
 </g>
</svg>
